<svg id="Capa_1" enable-background="new 0 0 512.022 512.022" height="512" viewBox="0 0 512.022 512.022" width="512" xmlns="http://www.w3.org/2000/svg"><g><g><g><path d="m317.292 81.84c-34.185 0-59.299 24.981-64.882 31.032-5.583-6.052-30.697-31.032-64.882-31.032-75.982 0-117.161 27.492-117.161 104.083 0 37.443 22.762 73.029 40.489 95.065 12.568 15.623 20.247 34.593 21.975 54.569 6.068 70.162 30.113 131.547 41.193 156.749 3.254 7.402 10.561 12.191 18.647 12.191 11.242 0 20.356-9.114 20.356-20.356v-102.855c0-34.266 7.036-58.991 15.302-75.994 9.777-20.112 38.384-20.112 48.161 0 8.266 17.004 15.302 41.729 15.302 75.994v102.856c0 11.242 9.114 20.356 20.356 20.356 8.086 0 15.393-4.789 18.647-12.191 11.08-25.203 35.125-86.587 41.193-156.749 1.728-19.976 9.407-38.946 21.975-54.569 17.727-22.037 40.489-57.623 40.489-95.065.001-76.592-41.177-104.084-117.16-104.084z" fill="#f5f7f8"/><g fill="#d9e7eb"><path d="m216.338 118.773c0 46.497-37.694 84.191-84.191 84.191-24.292 0-46.181-10.286-61.541-26.745 3.402-69.216 44.242-94.379 116.92-94.379 7.794 0 15.123 1.296 21.849 3.383 4.48 10.276 6.963 21.621 6.963 33.55z"/><path d="m434.452 185.922c0 37.447-22.759 73.034-40.483 95.071-12.571 15.618-20.247 34.588-21.978 54.568-6.073 70.156-30.118 131.539-41.196 156.741-1.632 3.709-4.263 6.755-7.507 8.872-3.244 2.127-7.102 3.323-11.137 3.323-7.309 0-13.719-3.848-17.309-9.644 1.83-1.79 3.343-3.937 4.411-6.37 11.078-25.202 35.123-86.585 41.196-156.751 1.721-19.98 9.406-38.95 21.968-54.568 17.734-22.037 40.493-57.624 40.493-95.061 0-59.949-25.222-89.819-72.619-99.967 67.673 3.097 104.161 31.682 104.161 103.786z"/></g></g><g><ellipse cx="391.015" cy="431.464" fill="#fb4a59" rx="91.138" ry="50.243" transform="matrix(.707 -.707 .707 .707 -190.566 402.869)"/><path d="m455.454 367.019c19.624 19.624 3.782 67.28-28.909 99.972-32.701 32.701-80.356 48.543-99.98 28.919-5.012-5.012-7.713-11.875-8.397-19.846 21.4 8.268 58.225-6.4 84.637-32.812 26.403-26.403 41.07-63.211 32.821-84.629 7.972.684 14.815 3.384 19.828 8.396z" fill="#f82f40"/></g><g><g><circle cx="132.143" cy="91.693" fill="#64b9fc" r="84.192"/><path d="m216.337 91.69c0 46.497-37.694 84.191-84.191 84.191-7.814 0-15.38-1.068-22.561-3.066 42.521-2.621 76.199-37.941 76.199-81.125 0-43.194-33.688-78.514-76.229-81.115 7.191-2.008 14.767-3.076 22.591-3.076 46.497 0 84.191 37.694 84.191 84.191z" fill="#31a7fb"/></g><g><path d="m171.94 71.142h-19.244v-19.244c0-3.824-3.1-6.924-6.924-6.924h-27.256c-3.824 0-6.924 3.1-6.924 6.924v19.244h-19.244c-3.824 0-6.924 3.1-6.924 6.924v27.256c0 3.824 3.1 6.924 6.924 6.924h19.244v19.244c0 3.824 3.1 6.924 6.924 6.924h27.256c3.824 0 6.924-3.1 6.924-6.924v-19.244h19.244c3.824 0 6.924-3.1 6.924-6.924v-27.256c0-3.824-3.1-6.924-6.924-6.924z" fill="#27e19d"/><path d="m178.859 78.066v27.259c0 3.824-3.1 6.924-6.924 6.924h-19.238v19.238c0 3.828-3.106 6.924-6.924 6.924h-22.303c3.818 0 6.924-3.096 6.924-6.924v-12.314c0-3.824 3.1-6.924 6.924-6.924h12.314c3.824 0 6.924-3.1 6.924-6.924v-27.259c0-3.824-3.1-6.924-6.924-6.924h-12.314c-3.824 0-6.924-3.1-6.924-6.924v-12.324c0-3.818-3.106-6.924-6.924-6.924h22.304c3.824 0 6.924 3.1 6.924 6.924v19.248h19.238c3.823 0 6.923 3.1 6.923 6.924z" fill="#26d192"/></g></g></g><g><path d="m213.027 434.697c-4.142 0-7.5 3.358-7.5 7.5v41.947c0 7.089-5.768 12.856-12.856 12.856-5.098 0-9.722-3.026-11.781-7.71-10.194-23.188-34.557-84.647-40.587-154.378-1.856-21.464-10.018-41.736-23.604-58.625-17.715-22.022-38.833-55.576-38.833-90.365 0-6.917.356-13.482 1.06-19.625 9.739 6.945 20.786 11.999 32.484 14.705 4.034.931 8.063-1.581 8.998-5.617.934-4.036-1.581-8.064-5.617-8.998-16.602-3.84-31.667-13.308-42.42-26.657-11.069-13.742-16.92-30.354-16.92-48.039-.001-42.287 34.403-76.691 76.691-76.691s76.692 34.404 76.692 76.692c0 17.606-6.116 34.8-17.221 48.415-10.953 13.428-26.253 22.841-43.083 26.504-4.047.881-6.614 4.876-5.733 8.924.764 3.51 3.87 5.906 7.321 5.906.528 0 1.065-.056 1.603-.173 20.131-4.382 38.426-15.633 51.516-31.681 11.625-14.252 18.679-31.781 20.258-50.046 12.339 7.02 20.784 15.578 23.402 18.415.034.037.073.069.108.105.035.037.066.076.102.113 13.728 13.728 28.4 20.516 45.694 20.516 13.478 0 28.547-4.124 45.999-12.3 3.751-1.757 5.367-6.222 3.61-9.973-1.757-3.75-6.222-5.366-9.973-3.61-30.847 14.451-50.942 14.604-69.114-.158 9.522-8.629 29.342-23.311 53.97-23.311 46.469 0 75.886 10.286 92.578 32.371 1.475 1.951 3.718 2.978 5.989 2.978 1.575 0 3.163-.494 4.516-1.517 3.305-2.498 3.959-7.201 1.461-10.505-19.492-25.79-53.688-38.326-104.544-38.326-30.274 0-53.591 17.434-64.885 27.938-6.234-5.787-16.177-13.7-29.021-19.664-4.575-46.314-43.749-82.613-91.245-82.613-50.559 0-91.692 41.133-91.692 91.692 0 20.844 7.188 41.247 20.239 57.449 1.535 1.905 3.148 3.74 4.824 5.509-1.749 9.469-2.647 19.969-2.647 31.272 0 39.157 22.918 75.867 42.145 99.767 11.712 14.56 18.748 32.027 20.347 50.515 6.224 71.962 31.306 135.252 41.8 159.123 4.453 10.129 14.467 16.673 25.513 16.673 15.36 0 27.856-12.496 27.856-27.856v-41.947c0-4.142-3.358-7.5-7.5-7.5z"/><path d="m460.763 361.717c-11.367-11.367-30.034-13.866-52.562-7.035-11.034 3.345-22.371 8.807-33.125 15.808 1.947-11.638 3.421-23.113 4.385-34.284 1.601-18.493 8.638-35.96 20.353-50.518 19.222-23.908 42.135-60.625 42.135-99.771 0-13.504-1.262-25.842-3.75-36.67-.928-4.037-4.954-6.557-8.99-5.629-4.037.928-6.557 4.953-5.629 8.99 2.236 9.728 3.37 20.935 3.37 33.31 0 19.197-6.736 50.459-38.824 90.369-13.586 16.883-21.75 37.156-23.609 58.628-1.366 15.841-3.794 32.331-7.197 49.048-2.45 2.152-4.837 4.374-7.135 6.672-16.747 16.747-29.851 37.893-35.952 58.017-5.876 19.38-4.829 35.888 2.809 47.363-1.533.633-3.186.985-4.893.985-7.091 0-12.86-5.769-12.86-12.86v-102.851c0-30.694-5.401-57.368-16.055-79.281-5.791-11.906-17.602-19.302-30.825-19.302s-25.034 7.396-30.826 19.306c-10.652 21.937-16.054 48.609-16.054 79.277v23.88c0 4.142 3.358 7.5 7.5 7.5s7.5-3.358 7.5-7.5v-23.88c0-28.379 4.894-52.847 14.545-72.72 3.308-6.802 9.788-10.863 17.335-10.863s14.028 4.061 17.335 10.862c9.651 19.851 14.545 44.318 14.545 72.721v102.851c0 15.362 12.498 27.86 27.86 27.86 5.951 0 11.633-1.887 16.332-5.3 6.182 3.53 13.656 5.322 22.134 5.322 7.095 0 14.892-1.25 23.215-3.773 20.124-6.102 41.27-19.206 58.016-35.953 16.747-16.747 29.851-37.893 35.952-58.017 6.831-22.529 4.332-41.195-7.035-52.562zm-91.285 132.177c-16.734 5.074-30.44 3.876-37.603-3.287-14.628-14.629-3.017-53.985 23.766-83.911l60.146 60.146c-14.021 12.568-30.564 22.278-46.309 27.052zm56.913-37.66-60.146-60.146c14.022-12.567 30.564-22.277 46.309-27.051 6.838-2.073 13.169-3.099 18.756-3.099 8.085 0 14.611 2.15 18.847 6.386 14.628 14.628 3.017 53.984-23.766 83.91z"/><path d="m118.515 145.913h27.256c7.953 0 14.424-6.471 14.424-14.424v-11.744h11.744c7.953 0 14.423-6.471 14.423-14.424v-27.257c0-7.953-6.47-14.423-14.423-14.423h-11.744v-11.744c0-7.953-6.471-14.424-14.424-14.424h-27.256c-7.953 0-14.424 6.471-14.424 14.424v11.744h-11.744c-7.953 0-14.424 6.47-14.424 14.423v27.256c0 7.953 6.471 14.424 14.424 14.424h11.744v11.744c.001 7.954 6.471 14.425 14.424 14.425zm-25.591-41.168v-26.104h18.668c4.142 0 7.5-3.358 7.5-7.5v-18.668h26.104v18.668c0 4.142 3.358 7.5 7.5 7.5h18.667v26.104h-18.667c-4.142 0-7.5 3.358-7.5 7.5v18.668h-26.104v-18.668c0-4.142-3.358-7.5-7.5-7.5z"/></g></g></svg>