<svg id="Capa_1" enable-background="new 0 0 512 512" height="512" viewBox="0 0 512 512" width="512" xmlns="http://www.w3.org/2000/svg"><g><path d="m173.891 134.055h77.882v183.679h-77.882z" fill="#a3defe" transform="matrix(.707 -.707 .707 .707 -97.395 216.658)"/><path d="m209.083 167.075c-9.395 17.537-14.686 37.269-14.686 58.122 0 9.23 1.047 18.394 3.097 27.34-3.616.866-7.112 1.725-10.525 2.566l63.268 63.268 55.071-55.071z" fill="#7acefa"/><ellipse cx="103.217" cy="116.28" fill="#a3defe" rx="95.944" ry="110.008" transform="matrix(.707 -.707 .707 .707 -51.991 107.043)"/><path d="m52.97 20.101c-10.131 4.215-19.478 10.33-27.54 18.391-37.469 37.469-33.016 102.669 9.945 145.63 40.251 40.251 100.023 46.697 138.22 16.535-100.866-7.642-130.597-128.699-120.625-180.556z" fill="#7acefa"/><path d="m9.969 147.488c29.955-14.078 41.363-50.18 57.82-66.636 16.457-16.457 52.559-27.865 66.637-57.82-37.973-17.072-81.145-12.39-108.996 15.461s-32.533 71.022-15.461 108.995z" fill="#c0ade2"/><path d="m196.466 85.072c-29.955 14.078-41.364 50.18-57.82 66.637s-52.559 27.865-66.637 57.82c37.973 17.072 81.145 12.39 108.996-15.461 27.851-27.852 32.533-71.023 15.461-108.996z" fill="#c0ade2"/><path d="m9.969 147.488c24.094-11.323 36.189-36.89 48.564-55.027-7.66-27.382-9.066-54.142-5.563-72.36-10.131 4.215-19.478 10.33-27.54 18.391-27.851 27.852-32.533 71.023-15.461 108.996z" fill="#a09cdc"/><path d="m72.014 209.519c34.749 15.621 73.849 13.037 101.58-8.861-26.991-2.045-48.883-12.216-66.288-27.004-13.812 9.043-27.728 19.778-35.292 35.865z" fill="#a09cdc"/><g fill="#fff"><path d="m80.216 154.516h-15.316c-4.142 0-7.5-3.357-7.5-7.5s3.358-7.5 7.5-7.5h15.316c4.142 0 7.5 3.357 7.5 7.5 0 4.142-3.358 7.5-7.5 7.5z"/><path d="m133.953 100.779c-4.142 0-7.5-3.357-7.5-7.5v-15.316c0-4.143 3.358-7.5 7.5-7.5s7.5 3.357 7.5 7.5v15.316c0 4.143-3.358 7.5-7.5 7.5z"/></g><path d="m448.474 225.197c0-55.587-49.959-100.649-111.586-100.649s-111.586 45.062-111.586 100.649c0 18.253 5.387 35.37 14.805 50.13-50.321 8.023-87.885 25.742-120.84 17.559-16.039-3.983-30.762 10.492-27.251 26.642 26.037 119.774 97.723 176.498 192.646 176.498 75.442 0 136.6-50.229 136.6-112.19 0-26.728-11.387-51.268-30.385-70.54 34.343-17.16 57.597-50.177 57.597-88.099z" fill="#f6ee86"/><g><g><ellipse cx="320.723" cy="224.882" fill="#eda1ab" rx="29.792" ry="23.725"/></g><path d="m352.267 206.565c-4.143 0-7.5-3.357-7.5-7.5 0-3.684-2.997-6.681-6.681-6.681s-6.681 2.997-6.681 6.681c0 4.143-3.357 7.5-7.5 7.5s-7.5-3.357-7.5-7.5c0-11.955 9.726-21.681 21.681-21.681s21.681 9.726 21.681 21.681c0 4.143-3.358 7.5-7.5 7.5z" fill="#4e5660"/></g><path d="m430.051 193.766c10.597 0 20.276 6.013 24.972 15.513 4.73 9.57 14.481 15.628 25.156 15.628h9.056c12.573 0 22.765 10.192 22.765 22.765 0 12.573-10.192 22.765-22.765 22.765h-72.89c-11.206 0-21.517-6.12-26.884-15.956-7.171-13.142-5.699-29.312 3.727-40.943l2.901-3.58c8.3-10.243 20.779-16.192 33.962-16.192z" fill="#f2d98d"/><path d="m354.964 367.058c0 32.984-26.738 59.722-59.722 59.722-53.413 0-116.198-26.738-116.198-59.722s56.75-59.722 116.198-59.722c32.984 0 59.722 26.739 59.722 59.722z" fill="#f2d98d"/><path d="m266.473 379.151c-13.738 0-47.519-.471-64.44-4.83-4.011-1.033-6.425-5.123-5.392-9.134 1.033-4.012 5.122-6.429 9.134-5.392 10.586 2.728 33.277 4.355 60.697 4.355 4.142 0 7.5 3.357 7.5 7.5.001 4.144-3.357 7.501-7.499 7.501z" fill="#f6ee86"/><circle cx="109.43" cy="391.553" fill="#eda1ab" r="107.385"/><path d="m130.638 364.72v-31.165c0-3.107-2.519-5.625-5.625-5.625h-31.165c-3.107 0-5.625 2.518-5.625 5.625v31.165c0 3.107-2.519 5.625-5.625 5.625h-31.166c-3.107 0-5.625 2.518-5.625 5.625v31.165c0 3.107 2.518 5.625 5.625 5.625h31.165c3.107 0 5.625 2.518 5.625 5.625v31.165c0 3.107 2.519 5.625 5.625 5.625h31.165c3.107 0 5.625-2.518 5.625-5.625v-31.165c0-3.107 2.518-5.625 5.625-5.625h31.165c3.107 0 5.625-2.518 5.625-5.625v-31.165c0-3.107-2.518-5.625-5.625-5.625h-31.165c-3.105 0-5.624-2.519-5.624-5.625z" fill="#fff"/></g></svg>