<svg id="Capa_1" enable-background="new 0 0 512 512" height="512" viewBox="0 0 512 512" width="512" xmlns="http://www.w3.org/2000/svg"><g><g><g><path d="m225.354 150.649v-113.047c0-2.845-2.306-5.151-5.151-5.151h-215.052c-2.845 0-5.151 2.306-5.151 5.151v139.074c0 2.845 2.306 5.151 5.151 5.151h162.532c16.485-15.349 36.285-25.978 57.671-31.178z" fill="#1ee6a6"/><path d="m25.646 176.676v-139.074c0-2.845 2.306-5.151 5.151-5.151h-25.646c-2.845 0-5.151 2.306-5.151 5.151v139.074c0 2.845 2.306 5.151 5.151 5.151h25.646c-2.845 0-5.151-2.306-5.151-5.151z" fill="#0ed290"/><g><g><path d="m188.466 107.139c3.669-3.231 5.996-7.95 5.996-13.223 0-9.737-7.893-17.63-17.63-17.63-9.241 0-16.808 7.113-17.556 16.161h-93.197c-.748-9.048-8.315-16.161-17.556-16.161-9.737 0-17.63 7.893-17.63 17.63 0 5.273 2.327 9.992 5.996 13.223-3.669 3.231-5.996 7.95-5.996 13.223 0 9.737 7.893 17.63 17.63 17.63 9.241 0 16.808-7.113 17.556-16.161h93.197c.748 9.048 8.315 16.161 17.556 16.161 9.737 0 17.63-7.893 17.63-17.63 0-5.273-2.327-9.992-5.996-13.223z" fill="#fff"/></g><g><g><path d="m52.61 120.362c0-5.273 2.327-9.992 5.996-13.223-3.669-3.231-5.996-7.95-5.996-13.223 0-5.638 2.656-10.646 6.775-13.873-2.992-2.35-6.76-3.757-10.862-3.757-9.737 0-17.63 7.893-17.63 17.63 0 5.273 2.327 9.992 5.996 13.223-3.669 3.231-5.996 7.95-5.996 13.223 0 9.737 7.893 17.63 17.63 17.63 4.102 0 7.87-1.407 10.862-3.757-4.119-3.228-6.775-8.235-6.775-13.873z" fill="#fff3de"/></g></g></g></g><g><path d="m506.849 295.53h-122.357c-1.688 11.728-4.964 23.12-9.823 34.033l-.087.194v39.135c0 22.279-16.642 41.264-38.71 44.159l-.87.114v5.563c0 9.383-2.177 18.266-6.044 26.178h177.892c2.845 0 5.151-2.306 5.151-5.151v-139.074c-.001-2.845-2.307-5.151-5.152-5.151z" fill="#b3dafe"/><g><g><g><circle cx="443.493" cy="370.218" fill="#d8ecfe" r="38.117"/></g></g><g><circle cx="459.461" cy="367.775" fill="#fff" r="7.5"/></g><g><circle cx="433.706" cy="379.107" fill="#fff" r="7.5"/></g><g><circle cx="454.31" cy="392.499" fill="#b3dafe" r="7.5"/></g><g><circle cx="451.219" cy="343.05" fill="#b3dafe" r="7.5"/></g><g><circle cx="432.676" cy="357.473" fill="#b3dafe" r="7.5"/></g></g></g><g><g><path d="m176.999 379.855c-12.881-9.885-23.856-22.135-32.306-36.167-3.151-5.232-5.912-10.659-8.276-16.241v41.445c0 23.479 17.762 42.803 40.581 45.284v-34.321z" fill="#fed2a4"/><path d="m335.001 379.881v34.294c22.819-2.481 40.581-21.805 40.581-45.284v-41.413c-8.682 20.535-22.579 38.631-40.581 52.403z" fill="#ffe5c2"/></g><path d="m316.036 391.958c-8.375 4.375-13.577 13.034-13.577 22.598v13.843c0 5.688-4.628 10.316-10.316 10.316h-72.285c-5.688 0-10.316-4.627-10.316-10.316v-13.845c0-9.536-5.311-18.251-13.86-22.744-6.962-3.659-13.539-7.939-19.682-12.749v39.668c0 33.59 27.23 60.821 60.821 60.821h38.361c33.59 0 60.821-27.23 60.821-60.821v-39.64c-6.183 4.825-12.846 9.149-19.967 12.869z" fill="#fed2a4"/><path d="m196.811 418.728v-26.275c-.373-.22-.744-.441-1.13-.644-6.962-3.659-13.539-7.939-19.682-12.749v39.668c0 33.59 27.23 60.821 60.821 60.821h20.812c-33.59 0-60.821-27.23-60.821-60.821z" fill="#ffbd86"/><g><path d="m386.833 276.815c0-72.6-59.134-131.389-131.863-130.829-70.396.542-128.166 57.398-129.768 127.779-1.174 51.595 27.529 96.6 70.014 118.93 8.149 4.283 13.325 12.653 13.325 21.859v13.845c0 6.25 5.066 11.316 11.316 11.316h72.286c6.25 0 11.316-5.066 11.316-11.316v-13.843c0-9.091 4.982-17.502 13.04-21.711 41.801-21.84 70.334-65.601 70.334-116.03z" fill="#fff3de"/></g><g><g><path d="m242.438 417.382c-6.25 0-11.316-5.066-11.316-11.316v-13.845c0-9.207-5.176-17.576-13.325-21.859-42.485-22.33-71.188-67.335-70.014-118.93.67-29.416 11.156-56.466 28.271-78.033-30.153 23.376-49.924 59.601-50.852 100.365-1.174 51.595 27.529 96.6 70.014 118.93 8.15 4.283 13.325 12.653 13.325 21.859v13.845c0 6.25 5.066 11.316 11.316 11.316h72.286c6.25 0 11.316-5.066 11.316-11.316v-11.017h-61.021z" fill="#ffe5c2"/></g></g><g><g><path d="m235.203 457.155c-4.143 0-7.5-3.358-7.5-7.5v-26.45c0-4.142 3.357-7.5 7.5-7.5s7.5 3.358 7.5 7.5v26.45c0 4.142-3.357 7.5-7.5 7.5z" fill="#fff3de"/></g><g><path d="m256 457.155c-4.143 0-7.5-3.358-7.5-7.5v-26.45c0-4.142 3.357-7.5 7.5-7.5s7.5 3.358 7.5 7.5v26.45c0 4.142-3.357 7.5-7.5 7.5z" fill="#fff3de"/></g><g><path d="m276.797 457.155c-4.143 0-7.5-3.358-7.5-7.5v-26.45c0-4.142 3.357-7.5 7.5-7.5s7.5 3.358 7.5 7.5v26.45c0 4.142-3.358 7.5-7.5 7.5z" fill="#fff3de"/></g></g><g><path d="m260.052 344.899c1.944 3.366 5.535 5.44 9.423 5.44 8.376 0 13.611-9.067 9.423-16.321l-13.748-23.812c-4.066-7.043-14.232-7.043-18.298 0l-13.748 23.812c-4.188 7.254 1.047 16.321 9.423 16.321 3.887 0 7.479-2.074 9.423-5.44 1.799-3.119 6.301-3.119 8.102 0z" fill="#fed2a4"/></g><g><g><path d="m255.601 334.018 11.648-20.175-2.1-3.637c-4.066-7.043-14.232-7.043-18.298 0l-13.748 23.812c-4.188 7.254 1.047 16.321 9.423 16.321 3.887 0 7.479-2.074 9.423-5.44.641-1.11 1.627-1.818 2.709-2.137-.889-2.754-.706-5.889.943-8.744z" fill="#ffbd86"/></g></g><g><g><circle cx="192.508" cy="272.326" fill="#fed2a4" r="35"/></g><g><path d="m181.759 272.326c0-15.067 9.521-27.908 22.874-32.84-3.778-1.396-7.863-2.16-12.126-2.16-19.33 0-35 15.67-35 35s15.67 35 35 35c4.263 0 8.348-.764 12.126-2.16-13.353-4.933-22.874-17.774-22.874-32.84z" fill="#ffbd86"/></g><g><circle cx="319.492" cy="272.326" fill="#fed2a4" r="35"/></g><g><path d="m308.47 272.326c0-15.118 9.586-27.997 23.011-32.892-3.74-1.364-7.777-2.108-11.989-2.108-19.33 0-35 15.67-35 35s15.67 35 35 35c4.212 0 8.249-.745 11.989-2.108-13.425-4.895-23.011-17.774-23.011-32.892z" fill="#ffbd86"/></g></g><g><path d="m256 249.342c-4.177 0-8.354-1.338-11.838-4.014l-18.792-14.43c-3.286-2.523-3.904-7.231-1.381-10.517 2.521-3.285 7.231-3.904 10.516-1.381l18.792 14.43c1.593 1.223 3.815 1.222 5.406 0l18.793-14.43c3.286-2.522 7.995-1.903 10.516 1.381 2.523 3.285 1.904 7.994-1.381 10.516l-18.793 14.43c-3.484 2.677-7.661 4.015-11.838 4.015z" fill="#ffe5c2"/></g><g fill="#fff"><path d="m242.703 439.715v-16.51c0-4.142-3.357-7.5-7.5-7.5s-7.5 3.358-7.5 7.5v16.51z"/><path d="m256 415.705c-4.143 0-7.5 3.358-7.5 7.5v16.51h15v-16.51c0-4.142-3.357-7.5-7.5-7.5z"/><path d="m276.797 415.705c-4.143 0-7.5 3.358-7.5 7.5v16.51h15v-16.51c0-4.142-3.358-7.5-7.5-7.5z"/></g><g><g><path d="m201.645 362.709c-4.143 0-7.5-3.358-7.5-7.5v-12.524c0-2.511-2.043-4.554-4.554-4.554h-13.47c-4.143 0-7.5-3.358-7.5-7.5s3.357-7.5 7.5-7.5h13.47c10.782 0 19.554 8.772 19.554 19.554v12.524c0 4.142-3.358 7.5-7.5 7.5z" fill="#fed2a4"/></g><g><path d="m310.355 362.709c-4.143 0-7.5-3.358-7.5-7.5v-12.524c0-10.782 8.771-19.554 19.554-19.554h13.47c4.143 0 7.5 3.358 7.5 7.5s-3.357 7.5-7.5 7.5h-13.47c-2.511 0-4.554 2.043-4.554 4.554v12.524c0 4.142-3.357 7.5-7.5 7.5z" fill="#fed2a4"/></g></g></g></g><g><g><path d="m90.141 229.504h-70.052c-4.143 0-7.5-3.358-7.5-7.5s3.357-7.5 7.5-7.5h70.052c4.143 0 7.5 3.358 7.5 7.5s-3.358 7.5-7.5 7.5z" fill="#1ee6a6"/></g><g><path d="m90.141 258.349h-70.052c-4.143 0-7.5-3.358-7.5-7.5s3.357-7.5 7.5-7.5h70.052c4.143 0 7.5 3.358 7.5 7.5s-3.358 7.5-7.5 7.5z" fill="#1ee6a6"/></g><g><path d="m90.141 287.194h-70.052c-4.143 0-7.5-3.358-7.5-7.5s3.357-7.5 7.5-7.5h70.052c4.143 0 7.5 3.358 7.5 7.5s-3.358 7.5-7.5 7.5z" fill="#1ee6a6"/></g><g><path d="m61.296 316.039h-41.207c-4.143 0-7.5-3.358-7.5-7.5s3.357-7.5 7.5-7.5h41.207c4.143 0 7.5 3.358 7.5 7.5s-3.358 7.5-7.5 7.5z" fill="#1ee6a6"/></g></g><g><g><path d="m489.852 180.055h-70.053c-4.143 0-7.5-3.358-7.5-7.5s3.357-7.5 7.5-7.5h70.053c4.143 0 7.5 3.358 7.5 7.5s-3.358 7.5-7.5 7.5z" fill="#8ac9fe"/></g><g><path d="m489.852 208.9h-70.053c-4.143 0-7.5-3.358-7.5-7.5s3.357-7.5 7.5-7.5h70.053c4.143 0 7.5 3.358 7.5 7.5s-3.358 7.5-7.5 7.5z" fill="#8ac9fe"/></g><g><path d="m489.852 237.746h-70.053c-4.143 0-7.5-3.358-7.5-7.5s3.357-7.5 7.5-7.5h70.053c4.143 0 7.5 3.358 7.5 7.5s-3.358 7.5-7.5 7.5z" fill="#8ac9fe"/></g><g><path d="m489.852 266.59h-41.208c-4.143 0-7.5-3.358-7.5-7.5s3.357-7.5 7.5-7.5h41.208c4.143 0 7.5 3.358 7.5 7.5s-3.358 7.5-7.5 7.5z" fill="#8ac9fe"/></g></g><g><path d="m443.493 415.835c-25.153 0-45.617-20.463-45.617-45.617s20.464-45.617 45.617-45.617 45.616 20.463 45.616 45.617-20.463 45.617-45.616 45.617zm0-76.233c-16.883 0-30.617 13.734-30.617 30.617s13.734 30.617 30.617 30.617c16.882 0 30.616-13.734 30.616-30.617s-13.734-30.617-30.616-30.617z" fill="#8ac9fe"/></g></g></svg>