<svg id="Capa_1" enable-background="new 0 0 512.138 512.138" height="512" viewBox="0 0 512.138 512.138" width="512" xmlns="http://www.w3.org/2000/svg"><g><path d="m457.235 16.317c-8.774-9.814-21.123-15.766-34.282-16.149-.314-.009-.627-.017-.939-.022-31.758-.575-54.946 29.965-46.565 60.603.036.133.072.265.108.398 5.044 18.592-7.156 37.677-26.179 40.711-17.446 2.782-33.579 9.657-47.761 20.48-32.798 25.029-26.99 62.939-21.374 99.602 3.976 25.958 8.348 54.516 1.603 84.023-2.728 11.934-13.343 20.404-25.586 20.393h-.191-.192c-12.242.01-22.858-8.459-25.586-20.393-6.745-29.507-2.374-58.065 1.603-84.023 5.616-36.663 11.424-74.573-21.374-99.602-14.182-10.823-30.315-17.698-47.761-20.48-19.023-3.034-31.223-22.119-26.179-40.711.036-.133.072-.265.108-.398 8.381-30.638-14.807-61.178-46.565-60.603-.312.006-.625.013-.939.022-13.158.382-25.507 6.335-34.281 16.149-30.703 34.339-53.657 76.795-54.903 127.749 1.246 50.954 24.2 93.41 54.903 127.749 8.774 9.814 21.123 15.766 34.282 16.149.314.009.627.017.939.022 31.758.575 54.946-29.965 46.565-60.603-4.741-17.333-7.144-35.222-7.144-53.192v-6.742c0-23.41 23.824-39.293 45.429-30.279 5.914 2.467 11.517 5.716 16.792 9.742 17.407 13.283 15.253 33.256 9.571 70.346-4.904 32.01-10.821 70.739 3.484 111.948 1.606 4.627-.12 9.764-4.273 12.359-20.307 12.687-33.319 32.171-33.319 54.034 0 23.774 15.376 44.742 38.797 57.209 7.496 3.99 12.076 11.898 12.076 20.39v28.119c0 5.901 4.783 10.684 10.684 10.684h54.566c5.901 0 10.684-4.783 10.684-10.684v-28.119c0-8.492 4.58-16.4 12.076-20.39 23.421-12.467 38.797-33.436 38.797-57.209 0-21.863-13.012-41.347-33.319-54.034-4.154-2.595-5.879-7.732-4.273-12.359 14.305-41.209 8.388-79.938 3.484-111.948-5.681-37.089-7.836-57.063 9.572-70.346 5.275-4.026 10.878-7.275 16.792-9.742 21.605-9.014 45.429 6.869 45.429 30.279v6.742c0 17.97-2.403 35.859-7.144 53.192-8.381 30.638 14.807 61.178 46.565 60.603.312-.006.625-.013.939-.022 13.159-.382 25.507-6.335 34.282-16.149 30.702-34.339 53.656-76.795 54.903-127.749-1.248-50.954-24.202-93.41-54.904-127.749z" fill="#dd636e"/><g fill="#da4a54"><path d="m136.689 227.383c-4.741-17.333-7.144-35.222-7.144-53.192v-6.742c0-12.417 6.703-22.715 16.222-28.304-1.424-.706-2.868-1.365-4.331-1.975-21.605-9.013-45.429 6.869-45.429 30.279v6.742c0 17.97 2.403 35.859 7.144 53.192 6.741 24.641-6.947 49.205-29.083 57.583 4.797 1.802 9.891 2.846 15.117 2.998.314.009.627.017.939.022 31.757.575 54.946-29.965 46.565-60.603z"/><path d="m103.151 60.749c-.036.133-.072.265-.108.398-5.044 18.592 7.156 37.677 26.179 40.711 17.446 2.782 33.579 9.657 47.761 20.48 12.321 9.402 19.192 20.623 22.674 32.913 8.572 13.125 6.286 31.942 1.681 62.008-4.338 28.316-9.458 61.891-.682 97.788 4.763 6.96 12.826 11.324 21.684 11.309h.192.191c6.202.011 12.011-2.131 16.577-5.798-4.335-3.481-7.551-8.334-8.886-14.067-6.919-29.695-2.519-58.438 1.481-84.551 5.616-36.663 11.424-74.573-21.374-99.602-14.182-10.823-30.315-17.698-47.761-20.48-19.023-3.034-31.223-22.119-26.179-40.711.036-.133.072-.265.108-.398 8.381-30.638-14.807-61.178-46.565-60.603-.312.006-.625.013-.939.022-5.227.152-10.32 1.195-15.117 2.997 22.136 8.378 35.824 32.942 29.083 57.584z"/><path d="m457.235 16.317c-8.774-9.814-21.123-15.766-34.282-16.149-.314-.009-.627-.017-.939-.022-6.216-.112-12.095.981-17.482 3.02 7.282 2.735 13.875 7.235 19.165 13.151 30.703 34.339 53.656 76.795 54.903 127.749-1.246 50.954-24.2 93.41-54.903 127.749-5.29 5.916-11.883 10.416-19.165 13.151 5.387 2.039 11.267 3.132 17.482 3.02.312-.006.625-.013.939-.022 13.159-.382 25.507-6.335 34.282-16.149 30.702-34.339 53.656-76.795 54.903-127.749-1.247-50.954-24.201-93.41-54.903-127.749z"/><path d="m311.589 341.564c-4.154-2.595-5.879-7.732-4.273-12.359 14.305-41.209 8.388-79.938 3.484-111.948-5.681-37.089-7.836-57.063 9.572-70.346 3.971-3.03 8.127-5.619 12.462-7.767-8.427-4.949-19.062-6.208-29.207-1.975-5.914 2.467-11.517 5.716-16.792 9.742-3.296 2.515-5.888 5.272-7.89 8.338-5.786 20.424-2.207 43.8 1.3 66.689 4 26.113 8.4 54.857 1.481 84.551-.733 3.145-2.043 6.018-3.78 8.556-1.145 4.683-2.515 9.403-4.166 14.159-1.607 4.629.124 9.767 4.279 12.363 20.304 12.687 33.313 32.169 33.313 54.03 0 23.773-15.376 44.742-38.797 57.209-7.496 3.99-12.076 11.898-12.076 20.39v38.804h22.854c5.901 0 10.684-4.783 10.684-10.684v-28.119c0-8.492 4.58-16.4 12.076-20.39 23.421-12.467 38.797-33.435 38.797-57.209-.002-21.863-13.014-41.347-33.321-54.034z"/></g><g><g><path d="m117.619 104.135c-4.323 0-10.558-.826-16.001-4.708-3.677-2.622-8.342-7.687-9.688-16.925-.669-4.591-2.512-5.831-3.118-6.238-2.821-1.897-7.57-1.308-9.01-.951-4.125 1.099-8.327-1.372-9.421-5.496-1.094-4.126 1.394-8.365 5.519-9.459 1.232-.327 12.297-3.018 21.386 2.98 3.771 2.489 8.556 7.448 9.939 16.935.453 3.104 1.538 5.242 3.319 6.535 3.04 2.208 7.892 1.97 9.506 1.698 4.194-.796 8.206 1.967 9 6.162.793 4.194-1.993 8.243-6.187 9.037-.483.09-2.469.43-5.244.43z" fill="#d82e3d"/></g><g><path d="m83.366 168.813c-3.917 0-6.864-.724-7.465-.884-4.125-1.094-6.583-5.325-5.489-9.451 1.089-4.11 5.287-6.568 9.4-5.502 1.452.357 6.187.939 9.001-.953.606-.408 2.449-1.647 3.118-6.238 1.346-9.239 6.012-14.303 9.688-16.925 8.936-6.372 20.012-4.508 21.244-4.275 4.194.794 6.95 4.837 6.156 9.032-.794 4.193-4.84 6.948-9.031 6.156-1.551-.265-6.403-.501-9.443 1.708-1.781 1.293-2.866 3.43-3.319 6.535-1.383 9.487-6.168 14.447-9.939 16.935-4.65 3.068-9.818 3.862-13.921 3.862z" fill="#d82e3d"/></g><g><g><path d="m74.793 133.382c-1.105 0-2.23-.237-3.299-.739-3.865-1.811-5.513-6.449-3.702-10.315 3.447-7.357 14.564-19.659 31.967-13.551 4.028 1.414 6.147 5.825 4.733 9.852-1.413 4.028-5.822 6.147-9.851 4.734-7.991-2.805-11.884 3.575-12.887 5.598-1.311 2.795-4.071 4.421-6.961 4.421z" fill="#d82e3d"/></g></g><g><path d="m394.519 104.135c-2.775 0-4.761-.34-5.243-.432-4.194-.794-6.951-4.837-6.157-9.031.793-4.194 4.838-6.95 9.031-6.157 1.553.264 6.404.498 9.443-1.709 1.781-1.293 2.867-3.43 3.319-6.535 1.383-9.487 6.168-14.447 9.939-16.935 9.086-5.998 20.152-3.307 21.385-2.98 4.126 1.094 6.583 5.325 5.488 9.451-1.089 4.109-5.297 6.561-9.399 5.502-1.452-.357-6.186-.939-9 .953-.606.408-2.448 1.646-3.118 6.238-1.346 9.238-6.013 14.303-9.689 16.925-5.441 3.884-11.677 4.71-15.999 4.71z" fill="#d82e3d"/></g><g><path d="m428.772 168.813c-4.104 0-9.27-.794-13.92-3.863-3.772-2.489-8.557-7.448-9.939-16.935-.452-3.104-1.538-5.242-3.318-6.535-3.041-2.208-7.891-1.971-9.506-1.697-4.199.789-8.206-1.968-9-6.162s1.993-8.243 6.187-9.037c1.236-.233 12.308-2.096 21.244 4.275 3.676 2.622 8.342 7.686 9.689 16.925.669 4.592 2.512 5.831 3.118 6.238 2.819 1.897 7.567 1.307 9.009.951 4.119-1.094 8.326 1.371 9.421 5.496 1.094 4.126-1.394 8.365-5.52 9.459-.602.161-3.549.885-7.465.885z" fill="#d82e3d"/></g><g><g><path d="m436.316 135.399c-3.172 0-6.142-1.968-7.274-5.117-.058-.154-1.195-3.099-3.452-5.33-2.347-2.323-4.693-2.782-8.094-1.589-4.024 1.412-8.437-.705-9.852-4.734-1.413-4.027.706-8.438 4.734-9.852 16.65-5.841 27.799 6.565 31.229 16.331 1.415 4.026-.704 8.438-4.732 9.852-.845.298-1.709.439-2.559.439z" fill="#d82e3d"/></g></g></g><g><path d="m285.359 384.596c-1.221 0-2.46-.291-3.614-.903-17.276-9.162-34.074-9.163-51.353 0-3.771 2-8.448.565-10.449-3.207-2-3.771-.564-8.448 3.207-10.448 21.842-11.585 43.993-11.585 65.837 0 3.772 2.001 5.207 6.678 3.207 10.448-1.388 2.618-4.066 4.109-6.835 4.11z" fill="#da4a54"/></g><circle cx="381.746" cy="426.656" fill="#b3e59f" r="76.018"/><path d="m381.746 350.637c-4.393 0-8.692.393-12.88 1.109 35.846 6.121 63.138 37.319 63.138 74.91s-27.292 68.788-63.138 74.91c4.189.715 8.488 1.109 12.88 1.109 41.984 0 76.018-34.035 76.018-76.018.001-41.985-34.034-76.02-76.018-76.02z" fill="#95d6a4"/><path d="m422.008 409.616h-18.788c-2.449 0-4.434-1.985-4.434-4.434v-18.788c0-2.449-1.985-4.434-4.434-4.434h-25.212c-2.449 0-4.434 1.985-4.434 4.434v18.788c0 2.449-1.985 4.434-4.434 4.434h-18.788c-2.449 0-4.434 1.985-4.434 4.434v25.212c0 2.449 1.985 4.434 4.434 4.434h18.788c2.449 0 4.434 1.985 4.434 4.434v18.788c0 2.449 1.985 4.434 4.434 4.434h25.212c2.449 0 4.434-1.985 4.434-4.434v-18.788c0-2.449 1.985-4.434 4.434-4.434h18.788c2.449 0 4.434-1.985 4.434-4.434v-25.212c.001-2.449-1.985-4.434-4.434-4.434z" fill="#f6f6f6"/></g></svg>